<?xml version="1.0" standalone="no"?>
<!DOCTYPE svg PUBLIC "-//W3C//DTD SVG 20010904//EN"
 "http://www.w3.org/TR/2001/REC-SVG-20010904/DTD/svg10.dtd">
<svg version="1.0" xmlns="http://www.w3.org/2000/svg"
 width="236.000000pt" height="236.000000pt" viewBox="0 0 236.000000 236.000000"
 preserveAspectRatio="xMidYMid meet">
<metadata>
Created by potrace 1.11, written by Peter Selinger 2001-2013
</metadata>
<g transform="translate(0.000000,236.000000) scale(0.100000,-0.100000)"
fill="#000000" stroke="none">
<path d="M1080 1674 c-263 -57 -436 -301 -400 -563 38 -276 302 -474 576 -431
207 32 382 200 424 405 24 115 -5 264 -70 366 -74 114 -216 207 -350 229 -81
12 -99 12 -180 -6z m181 -197 c45 -28 67 -117 29 -117 -13 0 -20 7 -20 19 0
10 -9 30 -21 45 -53 67 -158 -5 -110 -77 9 -13 62 -68 118 -121 80 -76 105
-107 117 -143 22 -64 5 -75 -27 -20 -15 25 -72 86 -127 137 -143 132 -162 169
-120 238 34 56 106 73 161 39z m-243 -181 c14 -25 68 -85 124 -137 112 -103
138 -139 138 -186 0 -40 -48 -98 -86 -106 -66 -12 -130 32 -141 97 -5 35 -4
38 17 34 16 -2 24 -11 27 -27 9 -63 84 -84 123 -34 34 43 20 68 -99 183 -111
106 -141 148 -141 195 0 37 12 31 38 -19z"/>
</g>
</svg>
